<mxfile host="app.diagrams.net" modified="2023-08-31T13:05:44.609Z" agent="Mozilla/5.0 (Windows NT 10.0; Win64; x64) AppleWebKit/537.36 (KHTML, like Gecko) Chrome/116.0.0.0 Safari/537.36" version="21.7.1" etag="J5Dh2p4PnULm1Y6x0jZt" type="github">
  <diagram name="PÃ¡gina-1" id="AXcaMMYYXHKPFaZMRNIG">
    <mxGraphModel>
      <root>
        <mxCell id="0" />
        <mxCell id="1" parent="0" />
      </root>
    </mxGraphModel>
  </diagram>
</mxfile>
